# xmcd CD database file
#
# Track frame offsets:
#	150
#	34041
#	62524
#	99675
#	139159
#	160511
#
# Disc length: 2519 seconds
#
# Revision: 0
# Processed by: cddbd v1.5.2PL0 Copyright (c) Steve Scherf et al.
# Submitted via: CDex 1.51
#
DISCID=4509d506
DTITLE=John Coltrane - Time Was
DYEAR=1957
DGENRE=Jazz
TTITLE0=Time Was
TTITLE1=Violets For Your Furs
TTITLE2=Chronic Blues
TTITLE3=Bakai
TTITLE4=While My Lady Sleeps
TTITLE5=Straight Street
EXTD=YEAR: 1957
EXTT0=
EXTT1=
EXTT2=
EXTT3=
EXTT4=
EXTT5=
PLAYORDER=
